<?xml version="1.0" encoding="utf-8"?>
<!-- Generator: Adobe Illustrator 19.0.0, SVG Export Plug-In . SVG Version: 6.00 Build 0)  -->
<svg version="1.1" id="Layer_1" xmlns="http://www.w3.org/2000/svg" xmlns:xlink="http://www.w3.org/1999/xlink" x="0px" y="0px"
	 viewBox="0 0 612 792" style="enable-background:new 0 0 612 792;" xml:space="preserve">
<style type="text/css">
	.st0{fill:#FDFDFD;}
	.st1{fill:#1F140F;}
	.st2{fill:#FEFEFE;}
	.st3{fill:#201510;}
	.st4{fill:#201511;}
	.st5{fill:#201611;}
	.st6{fill:#201612;}
	.st7{fill:#211612;}
	.st8{fill:#231915;}
	.st9{fill:#241A16;}
	.st10{fill:#261C18;}
	.st11{fill:#F1F0F0;}
	.st12{fill:#FCFCFD;}
	.st13{fill:#58585B;}
	.st14{fill:#97969B;}
	.st15{fill:#767478;}
	.st16{fill:#6A696C;}
	.st17{fill:#908F93;}
	.st18{fill:#B2B2B7;}
	.st19{fill:#36A5A4;}
	.st20{fill:#9AD1D9;}
	.st21{fill:#9ED1D8;}
	.st22{fill:#9DD2D9;}
	.st23{fill:#009A9A;}
	.st24{fill:#00A0A0;}
</style>
<path class="st0" d="M305.4,622.8c-104.5,0-209,0-313.6,0c-1.5,0-1.9-0.3-1.9-1.9c0-201.6,0-403.2,0-604.7c0-1.5,0.3-1.9,1.9-1.9
	c209,0,418.1,0,627.1,0c1.5,0,1.9,0.3,1.9,1.9c0,201.6,0,403.2,0,604.7c0,1.5-0.3,1.9-1.9,1.9C514.5,622.8,409.9,622.8,305.4,622.8z
	"/>
<path class="st1" d="M295.1,599.2c-60.9-0.8-123.3-23.6-176.3-70.4c-45-39.7-74.5-89.1-86.4-148.1c-15.7-77.3-0.9-149,44.9-213.3
	c40.9-57.5,96.6-93.7,165.3-109.7c34.1-7.9,68.6-9.2,103.2-4c68.7,10.4,126.1,41.7,171.6,94.1c33.1,38.1,54.3,82.4,62.1,132.3
	c12.4,78.8-5.7,150.3-55,213.1c-41.3,52.6-95.4,85.3-160.6,99.7C344.4,597.3,324.7,599.1,295.1,599.2z"/>
<path class="st2" d="M304.8,69.8c65,0.8,122.6,21.5,171.8,64.2c42.8,37.2,70.8,83.6,82.1,139.2c14.3,70.3,1.4,135.9-39.4,194.9
	c-40.3,58.2-95.9,94.3-165.4,107.1c-76.6,14.2-146.8-2.3-208.9-49.7C98.1,489.8,66.9,442.9,53,385.5C35.5,312.5,47.7,244.1,90.2,182
	c37.2-54.3,88.7-88.8,152.5-104.8C263.1,72.1,283.8,69.9,304.8,69.8z"/>
<path class="st3" d="M304.9,533.7c-62.5-1.2-115.7-23.8-158.1-70c-28.9-31.5-46.4-68.7-51.8-111.1c-7.6-59.5,7.6-112.9,45.7-159.3
	c33.2-40.3,76-65.4,127.5-73.7c75.2-12,140.2,9.4,193,64.5c31.3,32.7,49.4,72.2,54.3,117.3c6.2,57-8.6,108.3-44.5,153
	c-32.6,40.6-75.2,65.4-126.3,75.4C331.6,532.5,318.3,533.6,304.9,533.7z"/>
<path class="st3" d="M523.2,261.1c-1-0.5-2-0.9-2.9-1.6c-3.7-2.8-4.2-8.4-0.8-11.9c3.4-3.5,7.7-4.7,12.4-3.5c4,1,7.9,6.2,4.9,12.1
	c3.3-1.1,6.4-2,9.5-3.2c1.3-0.5,1.8-0.2,2.1,1.1c0.2,1,1,1.8-0.8,2.4c-8.5,2.7-16.9,5.6-25.4,8.5c-0.9,0.3-1.2,0-1.2-0.7
	c0-0.8-1.5-1.6,0.1-2.3C521.7,261.7,522.4,261.4,523.2,261.1z"/>
<path class="st4" d="M420.4,116.7c1-0.3,1.9-0.6,2.8-0.7c5.4-0.5,9.2,4.1,7.3,9.2c-1.5,4.3-4.2,8.2-6.5,12.1
	c-0.8,1.4-1.6-0.4-2.5-0.6c-0.9-0.2-0.9-0.7-0.5-1.5c1.5-2.6,3-5.3,4.5-8c0.4-0.7,0.8-1.4,1.1-2.2c1.2-2.8,0.6-5-1.7-6.3
	c-2.4-1.3-5.4-0.5-6.9,1.9c-1.9,3.1-3.7,6.3-5.3,9.6c-0.8,1.6-1.5,0.7-2.3,0.3c-1-0.5-1.6-0.8-0.8-2.2c4.4-7.6,8.6-15.2,12.8-22.8
	c0.7-1.3,1.3-1.2,2.3-0.5c0.9,0.6,1.9,0.8,0.9,2.3C423.8,110.4,422.2,113.5,420.4,116.7z"/>
<path class="st4" d="M501.1,181.5c-3.4-0.2-6.5-0.4-9.6-0.7c-1.1-0.1-1.5,0.2-1.8,1.3c-1,4.2-2,8.3-3.1,12.4
	c-2.6-1.9-2.9-2.6-2.1-5.5c0.6-2.2,1.2-4.4,1.8-6.7c0.2-0.7,1-1.7,0.1-2.1c-0.9-0.4-2.1-0.5-3,0.4c-1.6,1.4-3.3,2.7-5,4.1
	c-2.4-2.7-2.4-2.7,0.3-4.9c6.2-5.1,12.5-10.1,18.7-15.3c1.4-1.2,1.7-0.3,2.6,0.5c1.1,1.1,0.7,1.6-0.3,2.4
	c-4.2,3.4-8.4,6.8-12.5,10.7c2.8,0,5.7,0.2,8.5-0.1C498.3,177.9,499.8,179.2,501.1,181.5z"/>
<path class="st3" d="M535.5,295.6c-5.7,0-9.9-4.1-9.9-9.9c0-5.6,4.5-9.6,10.9-9.6c5.8,0,10,4.2,10,10
	C546.4,291.6,541.9,295.6,535.5,295.6z"/>
<path class="st4" d="M328.8,106.6c-4.9-0.1-8.7-1.4-10.3-5.7c-1.7-4.6-0.9-9,2.5-12.6c2.6-2.8,7.2-3.3,10.5-1.5
	c2.9,1.7,4.7,6.3,3.8,9.8c-0.2,1-0.8,0.9-1.5,0.8c-3.7-0.3-7.4-0.6-11.1-1c-1.4-0.2-1.6,0.3-1.5,1.5c0.3,2.8,2,5,4.7,5.7
	c1.9,0.5,3.8,0.5,5.6,0.1c0.9-0.2,1.5-0.3,1.7,0.9c0.2,1.2-0.3,1.6-1.3,1.7C330.7,106.3,329.4,106.5,328.8,106.6z"/>
<path class="st4" d="M455.8,158.4c-2.7,0.4-4.8-0.1-6.6-1.6c-2.3-1.9-3-4.4-2-6.9c1.1-2.6,3.9-4.2,6.8-3.7c2.7,0.4,5,1.8,7,3.5
	c0.9,0.8,1.4,0.6,2-0.3c1.1-1.8,1-3.4-0.5-5c-1.2-1.3-2.7-2.2-4.5-2.7c-0.7-0.2-1.2-0.3-0.7-1.1c0.3-0.6,0.2-1.6,1.4-1.3
	c3.3,1,6.2,2.7,7.8,6c1.1,2.2,0.6,4.5-0.8,6.3c-2.7,3.6-5.6,7-8.3,10.5c-0.4,0.5-0.8,0.5-1.1,0c-0.5-0.7-1.9-0.7-1.4-2
	C455,159.6,455.4,159.2,455.8,158.4z"/>
<path class="st3" d="M359.3,90.9c0.6,0.2,0.8,0.3,1.1,0.3c2.2,0.2,2.9,1.4,3,3.5c0.2,4.5,0.8,9,1.2,13.7c2.5-3.8,4.9-7.4,7.2-11
	c1.8-2.8,1.8-2.8,5.2-1.9c0.2,0.8-0.5,1.2-0.9,1.7c-4.1,5.7-7.9,11.6-12.5,17c-2,2.4-4.4,4.4-7.7,5c-0.7,0.1-1.9,0.8-2.1-0.6
	c-0.2-1.1-0.7-2.5,1.4-2.6c1.1-0.1,2.1-0.7,3-1.2c2.5-1.5,3.8-3.3,3.2-6.6C360.6,102.6,360.1,96.8,359.3,90.9z"/>
<path class="st4" d="M515.5,239.6c-2.7-0.5-4.4-1.6-5.6-3.4c-2.3-3.6-1.4-7.4,2.4-9.7c2.4-1.4,5-2.4,7.5-3.6c1-0.5,2.2-0.8,3.1-1.4
	c1.7-1,2.5-0.7,3.1,1.2c0.4,1.1,0.1,1.4-0.8,1.7c-2.7,1.1-5.3,2.4-8,3.6c-0.9,0.4-1.7,0.8-2.5,1.3c-2.6,1.6-3.4,3.7-2.3,5.9
	c1.2,2.4,4,3.5,6.6,2.5c3.3-1.4,6.6-2.8,9.8-4.4c1.7-0.9,1.8,0.2,2.4,1.2c0.7,1.2,0.3,1.7-0.9,2.2c-5.1,2.3-10.2,4.6-15.3,6.9
	c-0.8,0.4-1.5,0.8-1.8-0.5c-0.2-0.9-1.3-1.8,0.3-2.4C514.2,240.4,514.6,240.1,515.5,239.6z"/>
<path class="st4" d="M475.1,156.7c1.7-0.3,3.3-0.1,4.8,0.6c4.4,2.1,5.7,7.1,2.5,10.9c-2.8,3.4-6.1,6.4-9.3,9.4
	c-1.3,1.2-1.5-0.7-2.3-1.1c-0.6-0.3-0.9-0.8-0.2-1.5c2.3-2.1,4.5-4.3,6.7-6.5c0.6-0.6,1.2-1.1,1.7-1.8c2-2.5,2-4.7,0.1-6.5
	c-2-1.9-5-2-7.2,0c-2.6,2.4-5.2,5-7.7,7.6c-1,1.1-1.5,0.7-2.3-0.1c-0.7-0.8-1.5-1.3-0.3-2.5c4.1-3.9,8.1-8,12.1-12
	c0.6-0.6,1.1-1.1,1.7-0.1c0.4,0.7,2,1.1,0.6,2.3C475.7,155.5,475.2,155.9,475.1,156.7z"/>
<path class="st4" d="M389.4,100.4c-0.3,1.1-0.3,2.2-2.2,1.5c-2.9-1.2-3-1-4,2.1c-1.3,3.9-2.7,7.8-3.9,11.7c-0.5,1.5-1.1,1.2-2.2,0.8
	c-1-0.4-1.8-0.4-1.3-2c1.6-4.4,3-8.8,4.5-13.3c0.4-1.1,0.5-1.9-1-2.1c-1-0.1-1.1-0.7-0.7-1.6c0.3-0.7,0.4-1.6,1.4-1
	c1.6,0.9,1.9-0.1,2.3-1.3c2-5.1,6.3-6.9,10.7-4.5c1.1,0.6,1.2,1.1,0.6,2.2c-0.6,1.2-1.1,0.8-1.9,0.4c-2.8-1.5-6.6,1.1-6.5,4.4
	c0,0.7,0.5,0.7,0.9,0.8c0.8,0.3,1.7,0.5,2.5,0.9C389.1,99.6,389.6,99.7,389.4,100.4z"/>
<path class="st5" d="M410.7,112c-1-0.9-1.8-2-3.1-2.5c-1.4-0.6-2.8-0.8-3.9,0.5c-1.1,1.3-0.7,2.7,0.4,3.8c0.8,0.9,1.7,1.8,2.4,2.7
	c2,2.4,2.2,4.7,0.7,7.1c-1.3,2.1-3.8,3-6.6,2.3c-2.3-0.5-4.2-1.7-5.9-3.3c-1.3-1.3,0.1-1.7,0.6-2.4c0.8-1.1,1.1,0.1,1.4,0.4
	c1.1,1,2.2,2,3.7,2.4c1.4,0.5,2.7,0.4,3.7-0.9c0.9-1.3,0.8-2.6-0.1-3.8c-0.9-1.1-1.9-2.1-2.8-3.2c-1.8-2.4-2-4.6-0.7-6.5
	c1.4-2,3.8-2.8,6.5-2.2c1.3,0.3,2.5,0.9,3.7,1.7C412.9,109.9,412.9,110.1,410.7,112z"/>
<path class="st5" d="M453,128.4c0,0.1,0,0.1,0,0.2c-0.8,1.2-2.3,2.4-2.2,3.5c0.1,1,2,1.8,3.1,2.6c1.1,0.8,0.1,1.2-0.2,1.8
	c-0.3,0.7-0.7,1.2-1.5,0.4c0,0-0.1-0.1-0.2-0.1c-1.1-0.7-2.2-2.3-3.3-2c-1,0.3-1.7,2-2.5,3.1c-1.4,1.9-2.8,3.8-4.1,5.8
	c-1.5,2.2-1.2,3.3,1,4.7c0.7,0.5,1.1,0.8,0.5,1.6c-0.6,0.7-0.8,1.4-2,0.8c-4.1-1.9-5.1-5-2.6-8.7c1.9-2.8,3.9-5.5,5.9-8.2
	c0.8-1,1.2-1.8-0.3-2.4c-1-0.5-1.1-1-0.4-2c0.7-1,1.2-1,2-0.2c0.6,0.5,1.2,1.3,2.1,0.1C450,126.8,450.1,126.9,453,128.4z"/>
<path class="st6" d="M505.3,200.7c0.2,1.3,0.5,2.7,0.6,4c0.3,3-0.7,5.1-3.1,6.2c-2.3,1.1-4.8,0.6-6.9-1.4c-1.6-1.6-2.6-3.6-3.2-5.8
	c-0.4-1.4,0.3-1.7,1.4-2c1.6-0.5,1.1,0.7,1.3,1.3c0.4,1.5,0.9,3,2,4.2c0.9,0.9,1.9,1.5,3.3,1c1.4-0.6,2.1-1.7,2-3.2
	c-0.1-1.2-0.4-2.4-0.5-3.6c-0.4-3.2,0.6-5.4,3-6.5c2.4-1,5.1-0.3,7.1,2.1c1,1.2,1.7,2.6,2.1,4.1c0.3,1.2,0,1.7-1.2,2
	c-1.3,0.3-1.3-0.4-1.4-1.2c-0.2-1.1-0.6-2.1-1.3-2.9c-0.8-1-1.8-1.7-3.2-1.2C505.8,198.2,505.2,199.2,505.3,200.7z"/>
<path class="st5" d="M524.3,209c-0.1,0.2-0.1,0.2-0.2,0.3c-1.2,0.7-3,1.2-3.5,2.3c-0.4,1,1,2.3,1.7,3.5c0.6,1-0.1,1.2-0.7,1.6
	c-0.7,0.4-1.2,0.8-1.7-0.3c-0.6-1.2-1.2-3.1-2.1-3.3c-1.1-0.2-2.5,1.1-3.7,1.7c-2,1.1-4.1,2.2-6,3.3c-2.3,1.4-2.6,2.5-1.2,4.8
	c0.3,0.5,0.9,1-0.1,1.4c-0.7,0.3-1.2,1.3-2.2,0.3c-2.9-3-2.7-6.7,0.8-8.9c3-1.9,6.2-3.6,9.4-5.2c1.2-0.6,1.5-1.2,0.7-2.2
	c-0.7-0.8-0.6-1.4,0.5-2c1.1-0.6,1.5-0.2,2,0.7c0.3,0.5,0.2,1.6,1.5,1C522.1,206.8,522.2,206.9,524.3,209z"/>
<path class="st5" d="M312.9,95.7c0,3.4,0.2,6.8,0,10.1c-0.4,4.7-2.8,7.2-6.9,7.8c-0.9,0.1-1.7,0.3-1.9-1.1c-0.2-1.2,0-1.6,1.3-1.8
	c2.5-0.4,3.6-1.7,3.8-4.6c0.3-3.6,0.3-7.3,0.4-11c0.1-2.8,0.2-5.6,0.1-8.3c0-1.4,0.5-1.6,1.8-1.6c1.3,0,1.9,0.2,1.9,1.7
	c-0.1,2.9,0,5.8,0,8.7C313.2,95.7,313.1,95.7,312.9,95.7z"/>
<path class="st3" d="M346.4,80.1c-1.4,9.1-2.8,18-4.1,26.9c-0.2,1.4-1.1,1-1.7,0.8c-0.7-0.3-2.1,0.5-1.9-1.3
	c1.4-8.9,2.7-17.8,4-26.7c0.2-1.2,0.8-1.3,1.6-0.9C345.2,79.2,346.8,78.4,346.4,80.1z"/>
<path class="st3" d="M356.6,82.3c-1.7,8.7-3.4,17.5-5.1,26.4c-0.3,1.5-1.2,1-2,0.8c-0.8-0.2-2,0.1-1.6-1.6
	c1.8-8.8,3.5-17.5,5.1-26.3c0.3-1.5,1.2-1,1.9-0.8C355.6,81,357,80.5,356.6,82.3z"/>
<path class="st7" d="M396.6,102.8c-0.2,0.6-0.3,0.9-0.5,1.2c-2,5.2-4.1,10.4-6,15.7c-0.6,1.6-1.3,1.1-2.4,0.8
	c-1.2-0.4-1.6-0.8-1-2.1c2.1-5.2,4.1-10.5,6.2-15.8c0.2-0.6,0.3-1.5,1.3-0.9C395,102,396.1,101.9,396.6,102.8z"/>
<path class="st4" d="M542.5,268.6c0.2,0.9-0.4,0.9-0.8,1c-5.8,1.5-11.5,2.9-17.3,4.3c-1.7,0.4-1.1-1.1-1.5-1.8
	c-0.3-0.7-0.6-1.4,0.7-1.8c5.7-1.4,11.4-2.9,17.1-4.2C542.9,265.7,541.8,268,542.5,268.6z"/>
<path class="st8" d="M311.9,81.6c-1.5,0-2.3-0.8-2.4-2.2c0-1.4,0.8-2.3,2.2-2.3c1.5-0.1,2.3,0.8,2.3,2.2
	C314.1,80.6,313.3,81.5,311.9,81.6z"/>
<path class="st9" d="M394.9,96.3c0.1-1.4,0.8-2.3,2.3-2.3c1.4,0,2.4,0.8,2.3,2.2c0,1.4-0.8,2.3-2.2,2.4
	C395.8,98.6,395,97.8,394.9,96.3z"/>
<path class="st10" d="M545.8,266.1c0.1-1.5,1-2.2,2.4-2.2c1.4,0,2.2,1,2.2,2.4c0,1.5-1,2.2-2.4,2.2
	C546.6,268.4,545.9,267.4,545.8,266.1z"/>
<path class="st11" d="M94.7,325c1.2-61.5,24.3-113.1,70.3-154.2c30.6-27.3,66.5-44.4,107-50c74.1-10.3,137.8,11.4,189.1,66.1
	c30.5,32.5,48.1,71.6,52.6,116c6.1,59.4-10.6,112-49.8,157c-32.7,37.5-74,60.7-123,68.7c-64.2,10.4-122-4.8-172.3-46.4
	C132.8,452.5,110,414.5,99.6,369C96.3,354.5,94.8,339.9,94.7,325z"/>
<path class="st2" d="M529.1,247.3c3.5,0.1,5.8,2,6.2,4.9c0.4,2.6-1.2,4.9-4.2,5.9c-1.3,0.5-2.7,1-4.1,1.3c-2.4,0.6-4.8-0.6-6-2.7
	c-1.2-2.2-0.9-4.6,1-6.5C524.1,248.1,526.7,247.4,529.1,247.3z"/>
<path class="st2" d="M535.2,291.9c-1.1,0-2.2-0.2-3.2-0.6c-4.3-1.7-5-6.8-1.4-9.6c2.7-2.1,5.8-2.6,9-1.6c2.2,0.6,3.6,2.1,3.9,4.5
	c0.4,2.3-0.5,4.1-2.4,5.5C539.5,291.3,537.4,291.9,535.2,291.9z"/>
<path class="st0" d="M330.7,94.5c-2.8-0.2-5.4-0.5-8.1-0.7c-0.5,0-1.1,0.1-1-0.8c0.3-2.3,3-4.7,5.4-4.7c2.7,0,4.7,1.8,5,4.6
	C332.1,94,332.1,94.9,330.7,94.5z"/>
<path class="st12" d="M454.8,156.7c-1.7-0.1-3.3-0.8-4.2-2.6c-0.7-1.4-0.2-2.6,0.8-3.7c1.4-1.5,3.1-1.5,4.8-0.8
	c0.3,0.1,0.6,0.3,0.9,0.4c1.2,0.8,3,1.2,3.2,2.7C460.4,154.1,456.7,156.6,454.8,156.7z"/>
<path class="st13" d="M507.4,334.3c-0.2,9.1-1.3,18.1-3,27c-8,41.4-27.2,76.8-57.4,106.2c-8.5,8.3-17.8,15.7-27.7,22.4
	c-9.3,6.3-19.1,11.8-29.3,16.4c-10.8,4.9-22,8.8-33.5,11.8c-10.3,2.7-20.8,4.5-31.4,5.7c-4.3,0.5-8.6,0.8-12.9,0.8
	c-4.9,0.1-9.9,0.1-14.8,0c-8.5-0.1-17-1.1-25.4-2.4c-8.9-1.3-17.8-3.3-26.4-5.9c-13.4-4.1-26.3-9.4-38.6-16.1
	c-9.7-5.3-19-11.3-27.7-18c-7.5-5.7-14.4-12.1-21-18.9c-12.4-12.6-22.8-26.7-31.4-42.1c-6-10.7-11-22-14.8-33.7
	c-3.2-9.6-5.7-19.3-7.3-29.2c-1.2-7.4-2.2-14.8-2.5-22.3c-0.1-2.3-0.6-4.7-0.3-7.1c0.3-2.6,0.3-5.2,0-7.7c-0.3-4.1,0.4-8.2,0.7-12.3
	c0.2-3.9,0.7-7.7,1.3-11.6c1-7.4,2.5-14.8,4.4-22.1c3.6-14.2,8.9-27.7,15.6-40.7c5.8-11.3,12.7-22,20.7-31.9
	c32-39.8,73.1-64.3,123.2-73.9c14.8-2.8,29.7-3.8,44.7-3.2c8.7,0.4,17.4,1.3,26.1,2.7c17.9,2.9,35.1,8.1,51.6,15.7
	c13.1,6,25.5,13.2,37.1,22c6.4,4.8,12.4,10,18.3,15.4c6.5,5.9,12.3,12.4,17.9,19.2c10.2,12.6,18.8,26.2,25.7,40.9
	c6,12.7,10.6,25.9,13.6,39.5c1.6,7,2.8,14,3.6,21.2c0.4,4.4,0.8,8.8,1.1,13.2c0.4,1.5-0.1,3.1,0.3,4.7c0,3.4,0,6.8,0,10.2
	C507.3,331.4,507.8,332.9,507.4,334.3z"/>
<path class="st14" d="M297.4,524.5c4.9,0,9.9,0,14.8,0C307.3,525,302.4,525,297.4,524.5z"/>
<path class="st15" d="M101.9,321c0.5,2.6,0.5,5.2,0,7.7C101.9,326.2,101.9,323.6,101.9,321z"/>
<path class="st16" d="M507.7,319.8c-0.6-1.5-0.2-3.1-0.3-4.7C507.8,316.7,507.7,318.3,507.7,319.8z"/>
<path class="st16" d="M507.4,334.3c0.1-1.4-0.3-2.9,0.3-4.3C507.7,331.4,507.8,332.9,507.4,334.3z"/>
<path class="st2" d="M311.7,127.5c15.6,0.6,31,2.7,46.1,6.9c11.5,3.2,22.6,7.2,33.5,12.3c13.6,6.3,26.2,14.2,38,23.3
	c8,6.2,15.5,12.9,22.4,20.3c14.3,15.3,26.2,32.3,35.1,51.3c4.9,10.5,8.9,21.2,11.9,32.4c2.2,8.2,4.1,16.5,5,24.9
	c0.6,5.4,1.2,10.9,1.5,16.4c0.2,5.4,0.6,10.8,0.2,16.2c-0.3,4.3-0.4,8.5-0.9,12.8c-0.5,3.6-0.7,7.3-1.3,10.8
	c-0.7,4.6-1.7,9.1-2.7,13.6c-1.1,5.1-2.5,10.1-4.1,15.1c-2,6.2-4.1,12.4-6.8,18.4c-5.2,11.8-11.3,23.1-18.7,33.6
	c-3.6,5.1-7.3,10.1-11.4,14.9c-5,5.8-9.9,11.7-15.6,16.8c-6.4,5.7-13,11.3-20,16.4c-9.9,7.2-20.3,13.5-31.3,18.9
	c-13.9,6.7-28.4,11.8-43.5,15.1c-7.6,1.7-15.2,2.9-22.9,3.8c-4.5,0.5-9,0.7-13.4,1.1c-1.8-0.2-3.6,0-5.4-0.1c-1.7,0-3.4,0-5.1,0
	c-2.1,0.1-4.1-0.1-6.2,0.1c-4.3-0.4-8.7-0.6-13-1.1c-4.2-0.5-8.3-1.1-12.5-1.7c-7.4-1.2-14.7-2.9-21.9-4.9
	c-12.7-3.6-24.9-8.4-36.7-14.5c-12-6.2-23.4-13.5-34-22c-6-4.8-11.8-9.9-17.2-15.3c-12.3-12.5-22.9-26.3-31.6-41.6
	c-7.1-12.5-12.7-25.6-17-39.3c-2.9-9.4-5.1-19-6.5-28.7c-0.8-5.4-1.5-10.9-1.7-16.4c0-1.3-0.6-2.6-0.2-4c0.1-5.5,0.1-11.1,0-16.6
	c0.2-4.1,0.3-8.2,0.8-12.2c0.5-4.4,1.1-8.7,1.9-13.1c1.3-7.3,2.9-14.6,5-21.7c3.8-13,9-25.4,15.4-37.3c5.2-9.7,11.3-18.9,18.1-27.7
	c7.3-9.4,15.5-18,24.3-25.9c10.6-9.5,22.1-17.8,34.5-24.9c9.6-5.5,19.6-10.1,30-14c9.7-3.6,19.6-6.5,29.8-8.5
	c8.5-1.7,17.1-3.2,25.8-3.4c2.5-0.1,4.9-0.6,7.4-0.5C302,127.2,306.8,127.1,311.7,127.5z"/>
<path class="st11" d="M104.1,316.6c0.6,3.1,0.2,6.2,0.2,9.2c0,2.5,0.4,5-0.2,7.4C104.1,327.7,104.1,322.1,104.1,316.6z"/>
<path class="st17" d="M311.7,127.5c-4.9,0-9.8,0-14.7-0.1C302,127,306.8,126.8,311.7,127.5z"/>
<path class="st18" d="M296.2,522.7c2-0.7,4.1-0.1,6.1-0.3c0,0.1,0.1,0.2,0.1,0.3C300.4,522.7,298.3,522.7,296.2,522.7z"/>
<path class="st11" d="M302.4,522.7c0-0.1-0.1-0.2-0.1-0.3c1.8,0,3.6,0,5.4,0c0,0.1-0.1,0.2-0.1,0.3
	C305.9,522.7,304.2,522.7,302.4,522.7z"/>
<path class="st18" d="M307.6,522.7c0-0.1,0.1-0.2,0.1-0.3c1.8,0.2,3.6-0.4,5.3,0.3C311.2,522.7,309.4,522.7,307.6,522.7z"/>
<path class="st1" d="M304.9,510.7c-58.4-1.2-107.4-23-145.5-67.7c-25.4-29.8-39.5-64.6-42.5-103.7c-7-88.9,50.3-166.9,132.5-191.9
	c63.5-19.3,133.1-4.1,182.4,40.3c32.7,29.4,53.1,65.9,59.4,109.5c8,54.7-5.8,103.7-41.2,146.1C420.3,478.9,382,500,336.5,508
	c-4.4,0.8-8.9,1.3-13.3,1.7C317.1,510.4,311,510.7,304.9,510.7z"/>
<path class="st2" d="M482,334.3c-2.2,55.7-30.5,105.9-86.1,140C366,492.6,333,500.8,298.1,499c-64.5-3.5-114.1-32.9-147.4-88.4
	c-18.3-30.5-25.3-64.1-22.4-99.5c3.8-45.1,22.7-82.9,55.9-113.5c26.3-24.3,57.4-39.7,92.9-44.5c65.1-8.9,120.2,10.9,163.6,60.5
	C468.1,244.7,482,284,482,334.3z"/>
<path class="st19" d="M253.9,321c0,0.8-0.1,1.6-0.1,2.4c0,21.1,0,42.2,0,63.2c0,7.3-1.9,13.9-6.5,19.7c-8.6,10.7-22.9,10.5-31.1-0.4
	c-4.2-5.6-6.1-11.9-6.1-18.8c0-21.3,0-42.6,0-63.8c0-0.7,0-1.5,0-2.2c-1.1-2.3-0.5-4.8-0.5-7.2c0-2.4,0.1-2.4-2.2-2.4
	c-13.1,0-26.2-0.1-39.2,0c-2.8,0-4.4-0.9-5.5-3.5c-2.2-5-3.9-10.2-3.8-15.7c0-6.3,1.6-12.3,4.7-17.9c5.4-9.8,13.3-17.2,22.3-23.5
	c11.8-8.4,24.8-14.4,38.4-19.2c17.1-6,34.7-9.7,52.6-11.8c12.2-1.4,24.4-2,36.7-1.5c22.1,1,43.8,4.3,64.9,10.9
	c14.4,4.5,28.1,10.2,40.8,18.4c10.4,6.7,19.8,14.5,26.2,25.4c6.8,11.7,7.4,23.7,1.1,35.9c-0.9,1.8-2.1,2.6-4.1,2.5
	c-9.7-0.1-19.4,0-29.1,0c-2.7,0-2.6,0-2.7,2.6c-0.1,2.3,0.5,4.7-0.5,7c0,14.8,0,29.5-0.1,44.3c0,14.2,0,28.4,0,42.7
	c0,7.8-2,14.9-7.2,20.8c-7.8,8.9-19.4,8.6-26.9-0.5c-4.2-5.2-6.2-11.2-6.7-17.8c-0.2-0.8-0.1-1.6-0.1-2.4c0-28.2,0-56.5-0.1-84.7
	c0-3.4-0.4-6.7-0.4-10.1c0-1.2-0.6-1.7-1.7-1.7c-1.5,0-3,0-4.5,0c-1.3,0-1.8,0.7-1.8,1.9c0,1.7,0,3.4,0,5.1c0,0.9,0,1.8-0.7,2.5
	c0,8-0.1,16-0.1,24c0,14.8,0,29.7,0,44.5c0,7.3-1.8,14.1-6.3,20c-7.4,9.6-19.3,9.7-26.8,0.2c-1.8-2.3-3.2-4.9-4.2-7.6
	c-1.1-2.9-1.8-6-2.1-9.1c-0.2-0.7-0.1-1.5-0.1-2.2c0-22.4,0.1-44.9-0.1-67.3c0-3.5-1.1-7-0.9-10.6c0.1-1.1-0.7-1.4-1.6-1.4
	c-3.9-0.1-7.7-0.1-11.6,0c-1.1,0-1.5,0.6-1.4,1.7c0.2,1.8,0.1,3.5,0.1,5.3c0,0.9,0,1.8-0.6,2.5c0,1.2-0.1,2.4-0.1,3.7
	c0,37.5,0,74.9,0,112.4c0,1.6,0.2,3.2-0.3,4.8c-0.4-0.5-0.3-1-0.3-1.5c0-39.1,0-78.3,0-117.4c0-0.3,0.2-0.6-0.1-0.9
	c0-0.2-0.4,0.2-0.2,0.1c0.1-0.1,0.1,0,0.1,0.1c0.2,0.7,0.1,1.3,0.1,2c0,38.8,0,77.6,0,116.4c0,0.8-0.2,1.6,0.2,2.4
	c-0.8,7.7-4,14.3-10.2,19.2c-6.7,5.2-15.5,5-22.1-0.6c-6-5.1-8.9-11.9-9.5-19.8c-0.1-7.6,0-15.2,0-22.7c0-31.8,0-63.7,0-95.5
	c0-3,0-6.1-0.4-9.1c-0.4-3-0.4-3-3.5-3c-3.6,0-4.4-0.7-3.8,3.8C254.7,317.2,255.1,319.2,253.9,321z"/>
<path class="st20" d="M410.2,321.1c-0.2-3.1,0.2-6.2-0.3-9.3c-0.1-0.8,0.4-0.9,1-0.9c1,0,2,0,3.1,0c9.6,0,19.3-0.1,28.9,0
	c1.7,0,2.5-0.6,3.2-2c3-6,4.8-12.3,4.3-19c-0.6-8.4-4.1-15.8-9.3-22.4c-7-9-15.8-15.7-25.5-21.4c-15.4-9.1-32-15.2-49.3-19.5
	c-13.1-3.3-26.5-5.5-39.9-6.7c-10.1-0.9-20.3-1.3-30.4-0.8c-23.3,1.1-46.1,4.7-68.3,12.1c-14.8,4.9-29,11.3-41.8,20.4
	c-8.8,6.3-16.6,13.5-21.8,23.1c-6.2,11.6-6,23.3,0.1,34.9c0.6,1.2,1.6,1.2,2.7,1.2c13.6,0,27.2,0,40.9,0c2.7,0,2.6,0,2.4,2.7
	c-0.2,2.5-0.1,5-0.1,7.5c-18.6,0-37.3-0.1-55.9,0c-1.7,0-2.3-0.5-2.9-2c-3.3-9.3-5.2-18.7-5.1-28.6c0.2-14.1,4.2-27.2,10.9-39.4
	c5.3-9.7,12.1-18.3,20-26c14.3-14.1,31-24.8,49.4-32.9c14.7-6.4,29.9-10.9,45.7-13.7c6.1-1.1,12.3-1.7,18.5-2.3
	c4-0.3,8-0.6,11.9-0.6c9.8-0.1,19.5,0.8,29.3,2.2c12.7,1.8,25,4.9,37.1,9.1c16.7,5.8,32.2,13.8,46.4,24.3c14,10.4,26.1,22.6,35,37.7
	c6,10.2,10,21.1,11.5,32.9c1.7,12.8-0.2,25.2-4.4,37.3c-0.5,1.5-1.2,2.1-3,2.1c-14-0.1-28.1-0.1-42.1-0.1
	C411.7,321,411,321.1,410.2,321.1z"/>
<path class="st20" d="M304.4,321.1c-0.2-3,0.3-6-0.3-8.9c-0.2-1,0.3-1.3,1.2-1.3c4.5,0,9.1,0,13.6,0c1.1,0,1.4,0.4,1.4,1.4
	c-0.1,3.6,0.2,7.3,0.2,10.9c0.1,23,0.1,46,0.1,69c0,0.3,0,0.5-0.1,0.8c-0.6-1.2-0.3-2.5-0.3-3.8c0-21.9,0-43.9,0-65.8
	c0-2-0.5-2.5-2.5-2.5C313.4,321.1,308.9,321,304.4,321.1z"/>
<path class="st21" d="M253.9,321c-0.1-2.8,0.1-5.7-0.3-8.5c-0.2-1.2,0.2-1.7,1.5-1.7c1.6,0.1,3.1,0.1,4.7,0c1.8-0.1,2.7,0.3,2.3,2.3
	c-0.1,0.3,0,0.7,0,1c0.3,0.7,0.2,1.5,0.2,2.2c0,41,0,82,0,122.9c0,0.7,0.2,1.5-0.2,2.2c-0.6-1.1-0.3-2.3-0.3-3.4
	c0-38.1,0-76.2,0-114.3c0-2.7,0-2.7-2.7-2.7C257.3,321,255.6,321,253.9,321z"/>
<path class="st22" d="M360.1,321c0-2.8,0-5.7,0-8.5c0-1.2,0.3-1.7,1.6-1.7c2.1,0.1,4.2,0.1,6.3,0c1.3,0,1.6,0.4,1.6,1.7
	c0,30.7,0,61.3-0.1,92c0,2,0,4.1,0,6.1c-0.6-1-0.3-2.1-0.3-3.2c0-27.9,0-55.8,0-83.8c0-2.6,0-2.6-2.7-2.6
	C364.3,321,362.2,321,360.1,321z"/>
<path class="st23" d="M262.1,441.5c0-1.8,0.1-3.5,0.1-5.3c0-37.6,0-75.3,0-112.9c0-3,0-6.1,0-9.1c0.6,0.6,0.4,1.4,0.4,2.1
	c0,41.1,0,82.3,0,123.4c0,0.7,0.3,1.5-0.3,2.1C262.1,441.7,262.1,441.6,262.1,441.5z"/>
<path class="st24" d="M304,443c-0.6-0.5-0.4-1.3-0.4-1.9c0-39.4,0-78.7,0-118.1c0-0.5-0.2-1.1,0.4-1.8c0,1,0,1.7,0,2.5
	c0,38.8,0,77.7,0,116.5c0,0.6,0.1,1.2,0.1,1.8C304,442.3,304,442.7,304,443z"/>
</svg>
